<svg t="1699723039974" class="icon" viewBox="0 0 1024 1024" version="1.1" xmlns="http://www.w3.org/2000/svg" p-id="2032" xmlns:xlink="http://www.w3.org/1999/xlink" ><path d="M831.81629667 288.02407445a97.09036999 97.09036999 0 0 1 97.09037 97.09037v97.09036998h-218.45333333a121.36296334 121.36296334 0 0 0-121.12023667 113.40155336L589.09036999 603.56777778a121.36296334 121.36296334 0 0 0 113.40155335 121.12023664L710.45333334 724.93074112H928.90666667v97.09036999a97.09036999 97.09036999 0 0 1-97.09036999 97.09036998H152.18370333a97.09036999 97.09036999 0 0 1-97.09037-97.09036998V385.11444445a97.09036999 97.09036999 0 0 1 97.09037-97.09037h679.63259335z m72.81777779 242.72592555a72.81777778 72.81777778 0 0 1 0 145.63555554h-194.18074112a72.81777778 72.81777778 0 0 1 0-145.63555554h194.18074112z m-238.0655889-406.22611002l59.46785222 100.29435336a9.70903666 9.70903666 0 0 1-8.34977222 14.66064554H288.69276446a9.70903666 9.70903666 0 0 1-4.51470223-18.30153443l253.79422776-133.11089779a97.09036999 97.09036999 0 0 1 128.59619557 36.45743332z" p-id="2033"></path></svg>